# xmcd
#
# Track frame offsets:
#	150
#	19887
#	36203
#	50670
#	65711
#	82383
#	102744
#	118121
#	139856
#	156870
#	174060
#	188867
#	207401
#
# Disc length: 2969 seconds
# Revision: 5
# Processed by: cddbd v1.5.2PL0 Copyright (c) Steve Scherf et al.
# Submitted via: dBpowerAMP V12.0
#
DISCID=c40b970d
DTITLE=J.J. Cale - To Tulsa and Back
DYEAR=2004
DGENRE=Rock
TTITLE0=My Gal
TTITLE1=Chains of Love
TTITLE2=New Lover
TTITLE3=One Step
TTITLE4=Stone River
TTITLE5=The Problem
TTITLE6=Homeless
TTITLE7=Fancy Dancer
TTITLE8=Rio
TTITLE9=These Blues
TTITLE10=Motormouth
TTITLE11=Blues for Mama
TTITLE12=Another Song
EXTD=
EXTT0=
EXTT1=
EXTT2=
EXTT3=
EXTT4=
EXTT5=
EXTT6=
EXTT7=
EXTT8=
EXTT9=
EXTT10=
EXTT11=
EXTT12=
PLAYORDER=
